#!OML:ASF I:\golf\golf\golf 2\Subject 1\2002-09-07\Subject1.ASF
:FULLY-SPECIFIED
:DEGREES
181
root -6.12873 17.6551 1.33939 -9.85304 59.1534 -25.5087
lowerback -0.40404 -2.42058 -8.32888
upperback 4.33989 -2.92752 -0.073702
thorax 5.19274 -1.77589 4.43093
lowerneck -10.6715 12.2202 3.79544
upperneck 31.161 20.4028 -7.71591
head 13.5662 8.61221 -0.460537
rclavicle 1.66979e-014 3.18055e-015
rhumerus -14.7116 -0.558814 -97.1751
rradius 63.8853
rwrist -69.3257
rhand -53.8815 -5.43752
rfingers 7.12502
rthumb -26.3099 -33.6329
lclavicle 1.66979e-014 3.18055e-015
lhumerus 77.3784 -75.2786 24.7421
lradius 27.1846
lwrist 20.096
lhand 13.6359 44.6064
lfingers 7.12502
lthumb -141.434 250.249
rfemur -33.1959 10.8109 23.8939
rtibia 27.4938
rfoot -7.0835 11.3345
rtoes 10.2032
lfemur -15.3175 19.7423 5.09188
ltibia 31.3345
lfoot -11.462 15.3812
ltoes -25.3014
182
root -6.11492 17.6599 1.38559 -8.96871 58.5281 -24.4166
lowerback -0.585391 -2.78491 -8.89799
upperback 4.32621 -3.35858 -0.424175
thorax 5.36404 -2.00765 4.34167
lowerneck -10.3784 12.7227 4.09155
upperneck 30.7815 21.0729 -7.9392
head 13.4629 8.92725 -0.497849
rclavicle -1.59028e-015 9.54166e-015
rhumerus -14.5529 -1.47008 -96.9721
rradius 65.2979
rwrist -68.5504
rhand -54.6845 -4.30464
rfingers 7.12502
rthumb -27.0784 -32.3829
lclavicle -1.59028e-015 9.54166e-015
lhumerus 79.1117 -74.5739 23.6119
lradius 27.1346
lwrist 18.3936
lhand 12.3937 43.3256
lfingers 7.12502
lthumb -142.607 249.287
rfemur -33.0003 10.781 23.8487
rtibia 27.5151
rfoot -7.00662 12.1442
rtoes 11.2377
lfemur -14.7714 20.0417 4.98011
ltibia 31.5652
lfoot -11.4242 15.3895
ltoes -25.7314
183
root -6.10505 17.66 1.44734 -9.08267 57.7726 -24.3196
lowerback -0.641795 -3.07071 -9.13003
upperback 4.30823 -3.71832 -0.584183
thorax 5.43773 -2.19247 4.27314
lowerneck -10.0378 13.1552 4.4304
upperneck 30.5493 21.6574 -8.12796
head 13.4113 9.2113 -0.542685
rclavicle -4.05521e-014 -6.36111e-015
rhumerus -14.4874 -2.52143 -96.6235
rradius 66.7166
rwrist -66.5434
rhand -55.0101 -7.11131
rfingers 7.12502
rthumb -27.3898 -35.1407
lclavicle -4.05521e-014 -6.36111e-015
lhumerus 81.8734 -73.9734 21.4168
lradius 27.2127
lwrist 17.4481
lhand 12.4977 43.3934
lfingers 7.12502
lthumb -142.509 249.329
rfemur -32.6209 11.2152 24.3402
rtibia 27.5408
rfoot -7.03831 12.4538
rtoes 11.4657
lfemur -14.0772 20.4116 5.62617
ltibia 31.8251
lfoot -10.9864 15.2317
ltoes -27.4938
184
root -6.09793 17.6633 1.48539 -9.38041 57.2022 -24.5602
lowerback -0.480031 -3.38532 -9.00747
upperback 4.20154 -4.16047 -0.696424
thorax 5.27663 -2.39403 4.06831
lowerneck -9.74213 13.5288 4.70232
upperneck 30.3112 22.1717 -8.32474
head 13.3573 9.4566 -0.589079
rclavicle 1.90833e-014 6.36111e-015
rhumerus -14.3829 -3.36363 -96.188
rradius 68.1737
rwrist -64.8602
rhand -55.7989 -8.06747
rfingers 7.12502
rthumb -28.144 -35.9752
lclavicle 1.90833e-014 6.36111e-015
lhumerus 79.4177 -73.409 24.9398
lradius 26.9142
lwrist 14.3988
lhand 11.4183 42.2654
lfingers 7.12502
lthumb -143.53 248.465
rfemur -32.4084 11.3628 24.9097
rtibia 27.5681
rfoot -6.97528 12.8854
rtoes 11.8752
lfemur -13.7422 20.4699 6.25243
ltibia 32.1524
lfoot -10.1241 15.3321
ltoes -30.8654
185
root -6.0927 17.6686 1.52889 -9.07583 56.5495 -24.1134
lowerback -0.333702 -3.74822 -9.45956
upperback 4.12664 -4.64568 -0.775685
thorax 5.22016 -2.64513 4.20997
lowerneck -9.61456 13.9933 4.72789
upperneck 29.9336 22.8486 -8.56871
head 13.2713 9.73896 -0.579089
rclavicle 1.51076e-013 1.90833e-014
rhumerus -14.1331 -3.70584 -95.7727
rradius 69.6235
rwrist -63.6145
rhand -57.0147 -6.47101
rfingers 7.12502
rthumb -29.3055 -34.1818
lclavicle 1.51076e-013 1.90833e-014
lhumerus 75.6734 -72.4844 29.8817
lradius 26.4774
lwrist 10.9437
lhand 8.91453 40.4159
lfingers 7.12502
lthumb -145.904 247.178
rfemur -32.1949 11.3216 25.2077
rtibia 27.5768
rfoot -6.77492 13.6965
rtoes 12.9948
lfemur -13.342 20.6638 6.5171
ltibia 32.5807
lfoot -9.63456 15.3491
ltoes -32.8595
186
root -6.09316 17.6653 1.58797 -9.04214 55.8571 -23.7562
lowerback -0.0880491 -4.10134 -9.99546
upperback 4.12062 -5.12469 -0.828737
thorax 5.19751 -2.90005 4.42863
lowerneck -9.47336 14.496 4.63897
upperneck 29.5282 23.5525 -8.69297
head 13.14 10.0401 -0.509781
rclavicle -1.19271e-014 4.13472e-014
rhumerus -13.8486 -3.78873 -95.3668
rradius 71.1541
rwrist -62.6177
rhand -58.5895 -4.59326
rfingers 7.12502
rthumb -30.8081 -32.0311
lclavicle -1.19271e-014 4.13472e-014
lhumerus 78.9231 -71.509 27.3033
lradius 26.3698
lwrist 9.87157
lhand 7.26144 37.7794
lfingers 7.12502
lthumb -147.475 244.879
rfemur -31.7586 11.4475 25.6119
rtibia 27.5725
rfoot -6.58258 14.2822
rtoes 14.1286
lfemur -12.7151 21.0218 7.03452
ltibia 33.0525
lfoot -9.31786 14.942
ltoes -33.1927
187
root -6.09071 17.6586 1.64633 -9.34784 55.1394 -23.9402
lowerback -0.033393 -4.39957 -10.0865
upperback 4.07165 -5.52787 -0.866726
thorax 5.18404 -3.09993 4.41313
lowerneck -9.20556 14.8915 4.60611
upperneck 29.1839 24.0693 -8.72448
head 12.9857 10.2842 -0.460126
rclavicle 7.71285e-014 1.27222e-014
rhumerus -13.6057 -4.02418 -94.9696
rradius 72.7362
rwrist -61.6708
rhand -59.8785 -3.06506
rfingers 7.12502
rthumb -32.0362 -30.2637
lclavicle 7.71285e-014 1.27222e-014
lhumerus 83.0127 -70.6297 23.8222
lradius 26.2813
lwrist 9.04302
lhand 5.90655 35.1561
lfingers 7.12502
lthumb -148.766 242.513
rfemur -31.4435 11.8625 26.224
rtibia 27.5925
rfoot -6.47879 14.5148
rtoes 14.9501
lfemur -12.1963 21.5695 7.85578
ltibia 33.4692
lfoot -8.37441 14.4745
ltoes -35.9066
188
root -6.07919 17.66 1.70174 -9.48004 54.5601 -24.007
lowerback -0.0665581 -4.76939 -10.1679
upperback 3.99121 -6.01778 -0.920254
thorax 5.19847 -3.34166 4.36244
lowerneck -8.89212 15.2968 4.55812
upperneck 28.8038 24.6209 -8.82854
head 12.8221 10.5397 -0.434174
rclavicle -1.74931e-014 -1.27222e-014
rhumerus -13.3896 -4.3335 -94.6779
rradius 74.2169
rwrist -60.525
rhand -60.5473 -0.565112
rfingers 7.12502
rthumb -32.6727 -27.6338
lclavicle -1.74931e-014 -1.27222e-014
lhumerus 84.7858 -69.8331 22.7577
lradius 26.2389
lwrist 8.36311
lhand 4.93196 33.3321
lfingers 7.12502
lthumb -149.695 240.864
rfemur -31.1538 12.1232 26.6994
rtibia 27.5806
rfoot -6.4782 14.78
rtoes 15.3803
lfemur -11.7725 21.8613 8.48133
ltibia 33.8518
lfoot -7.47567 14.0931
ltoes -39.1461
189
root -6.06679 17.6672 1.75318 -9.45616 54.151 -23.7533
lowerback 0.119761 -5.20492 -10.3928
upperback 3.90921 -6.61312 -1.03932
thorax 5.11401 -3.63436 4.33148
lowerneck -8.53718 15.7903 4.49453
upperneck 28.2963 25.2992 -9.00813
head 12.6216 10.8514 -0.418959
rclavicle 1.70955e-013 -3.18055e-014
rhumerus -13.1222 -4.68594 -94.4556
rradius 75.7975
rwrist -59.6974
rhand -61.0372 2.2401
rfingers 7.12502
rthumb -33.1387 -24.7307
lclavicle 1.70955e-013 -3.18055e-014
lhumerus 85.4135 -69.0822 22.8555
lradius 26.2295
lwrist 8.17219
lhand 3.85552 31.4391
lfingers 7.12502
lthumb -150.722 239.155
rfemur -30.7314 12.0762 26.9911
rtibia 27.5286
rfoot -6.41172 15.1954
rtoes 16.2142
lfemur -11.3023 21.6391 8.897
ltibia 34.2124
lfoot -7.53085 13.7131
ltoes -38.0769
190
root -6.05381 17.6747 1.80008 -9.33139 53.7597 -23.4774
lowerback 0.195904 -5.55364 -10.5172
upperback 3.83758 -7.0803 -1.19116
thorax 5.06599 -3.86023 4.21202
lowerneck -8.33719 16.1629 4.37532
upperneck 27.8721 25.8085 -9.14152
head 12.458 11.0791 -0.395175
rclavicle -2.10712e-013 3.18055e-014
rhumerus -12.6741 -5.73616 -94.0652
rradius 76.9636
rwrist -57.0538
rhand -61.2029 -0.0606999
rfingers 7.12502
rthumb -33.2963 -26.9979
lclavicle -2.10712e-013 3.18055e-014
lhumerus 85.584 -68.3666 23.6906
lradius 26.0834
lwrist 7.474
lhand 2.8665 28.8543
lfingers 7.12502
lthumb -151.667 236.731
rfemur -30.4272 11.9677 27.2499
rtibia 27.4993
rfoot -6.2964 15.666
rtoes 17.2205
lfemur -10.9375 21.4024 9.23906
ltibia 34.519
lfoot -7.73022 13.3338
ltoes -35.5174
191
root -6.03856 17.68 1.85015 -8.9146 53.3204 -23.1358
lowerback -0.0850437 -5.80091 -10.6132
upperback 3.73962 -7.37097 -1.34194
thorax 5.16008 -4.00181 4.05668
lowerneck -8.24221 16.384 4.17671
upperneck 27.5082 26.0987 -9.21261
head 12.2995 11.205 -0.368773
rclavicle 1.82882e-014 -3.49861e-014
rhumerus -12.2398 -6.73842 -93.615
rradius 78.4179
rwrist -55.5362
rhand -61.4099 0.911553
rfingers 7.12502
rthumb -33.493 -25.9833
lclavicle 1.82882e-014 -3.49861e-014
lhumerus 86.9614 -67.65 23.4457
lradius 26.0756
lwrist 6.67004
lhand 2.07248 26.5683
lfingers 7.12502
lthumb -152.426 234.568
rfemur -30.4119 11.9595 27.4167
rtibia 27.5189
rfoot -6.29847 16.1217
rtoes 17.2698
lfemur -10.7779 21.4129 9.4371
ltibia 34.7813
lfoot -7.24442 13.0558
ltoes -35.6387
192
root -6.02583 17.6777 1.9067 -8.58981 52.6807 -22.9212
lowerback -0.354158 -6.08289 -10.7603
upperback 3.57998 -7.71433 -1.44306
thorax 5.2035 -4.16868 3.97827
lowerneck -7.96977 16.6998 4.15264
upperneck 27.039 26.4992 -9.36407
head 12.1142 11.4026 -0.391126
rclavicle 5.32743e-014 3.18055e-015
rhumerus -11.9203 -7.44969 -93.3226
rradius 79.8432
rwrist -53.6959
rhand -61.6748 1.63424
rfingers 7.12502
rthumb -33.7447 -25.2058
lclavicle 5.32743e-014 3.18055e-015
lhumerus 86.7082 -66.9975 24.7326
lradius 26.0714
lwrist 5.35271
lhand 1.28133 24.3642
lfingers 7.12502
lthumb -153.183 232.483
rfemur -30.4105 12.1658 27.711
rtibia 27.573
rfoot -6.25696 16.6157
rtoes 17.123
lfemur -10.4205 21.3703 9.85067
ltibia 35.0365
lfoot -6.80951 12.7436
ltoes -36.0238
193
root -6.01745 17.6742 1.97039 -8.47498 51.8553 -22.6859
lowerback -0.381407 -6.38763 -11.051
upperback 3.43491 -8.11043 -1.57677
thorax 5.15093 -4.36207 3.96155
lowerneck -7.65571 17.1338 4.36576
upperneck 26.6211 27.0631 -9.56031
head 12.0009 11.6843 -0.427894
rclavicle -2.10314e-013 3.18055e-015
rhumerus -11.6639 -7.77577 -93.2569
rradius 81.262
rwrist -51.8195
rhand -62.0099 3.08628
rfingers 7.12502
rthumb -34.0631 -23.6834
lclavicle -2.10314e-013 3.18055e-015
lhumerus 85.1584 -66.366 27.0915
lradius 26.0134
lwrist 3.85896
lhand 0.131206 22.1056
lfingers 7.12502
lthumb -154.284 230.388
rfemur -30.1745 12.6494 28.0677
rtibia 27.7274
rfoot -6.17387 17.0334
rtoes 17.6598
lfemur -9.66156 21.3836 10.4328
ltibia 35.2046
lfoot -6.36164 12.4309
ltoes -36.511
194
root -6.00775 17.684 2.01677 -8.02102 51.5918 -21.9671
lowerback -0.128106 -6.77932 -11.4781
upperback 3.28115 -8.6511 -1.79212
thorax 4.96417 -4.62194 3.95201
lowerneck -7.51944 17.5232 4.32752
upperneck 26.3019 27.5947 -9.66665
head 11.9074 11.9259 -0.393057
rclavicle 5.08889e-014 1.59028e-014
rhumerus -11.2084 -7.97272 -92.9578
rradius 82.6798
rwrist -50.1602
rhand -62.1594 4.90556
rfingers 7.12502
rthumb -34.2051 -21.8324
lclavicle 5.08889e-014 1.59028e-014
lhumerus 84.7817 -65.6627 28.3842
lradius 25.9912
lwrist 2.8282
lhand -1.32076 20.0159
lfingers 7.12502
lthumb -155.675 228.492
rfemur -30.0083 12.5205 27.9599
rtibia 27.9546
rfoot -6.27419 17.4079
rtoes 17.9176
lfemur -9.33648 21.3231 10.3343
ltibia 35.263
lfoot -5.491 12.239
ltoes -37.0054
195
root -6.00042 17.693 2.06474 -7.11891 51.2498 -20.6368
lowerback 0.142511 -7.06616 -12.4244
upperback 3.12548 -9.04581 -1.98383
thorax 4.83726 -4.82693 4.25341
lowerneck -7.43451 17.8583 4.08417
upperneck 25.9636 28.0741 -9.78232
head 11.7834 12.1283 -0.345337
rclavicle -3.65764e-014 -1.90833e-014
rhumerus -10.593 -8.14758 -92.4359
rradius 84.1113
rwrist -48.5041
rhand -62.3424 7.68655
rfingers 7.12502
rthumb -34.3788 -19.0123
lclavicle -3.65764e-014 -1.90833e-014
lhumerus 85.2113 -64.8689 29.0063
lradius 26.0881
lwrist 2.10234
lhand -2.76877 17.9669
lfingers 7.12502
lthumb -157.064 226.623
rfemur -29.8081 12.2943 27.5145
rtibia 28.1799
rfoot -6.54107 17.9222
rtoes 17.2186
lfemur -8.83829 21.3589 9.88363
ltibia 35.2611
lfoot -4.87566 11.965
ltoes -36.3199
